<?xml version="1.0" standalone="no"?>
<!DOCTYPE svg PUBLIC "-//W3C//DTD SVG 20010904//EN"
 "http://www.w3.org/TR/2001/REC-SVG-20010904/DTD/svg10.dtd">
<svg version="1.0" xmlns="http://www.w3.org/2000/svg"
 width="512.000000pt" height="512.000000pt" viewBox="0 0 512.000000 512.000000"
 preserveAspectRatio="xMidYMid meet">
<metadata>
Created by potrace 1.14, written by Peter Selinger 2001-2017
</metadata>
<g transform="translate(0.000000,512.000000) scale(0.100000,-0.100000)"
fill="#000000" stroke="none">
<path d="M2385 4784 c-92 -19 -218 -83 -289 -146 -118 -105 -186 -228 -335
-610 -54 -139 -338 -860 -631 -1603 -624 -1584 -613 -1556 -635 -1664 -37
-183 5 -325 133 -450 110 -108 241 -158 387 -148 144 10 245 57 311 146 62 82
145 269 275 616 l128 340 826 0 826 0 103 -270 c185 -484 253 -621 350 -713
179 -170 481 -161 665 20 167 164 195 313 111 588 -16 53 -257 658 -535 1345
-279 688 -581 1437 -672 1665 -173 437 -232 558 -320 665 -61 75 -171 155
-252 186 -130 48 -307 62 -446 33z m350 -175 c139 -42 239 -139 331 -320 14
-29 60 -138 101 -243 41 -105 338 -841 660 -1636 573 -1414 653 -1620 653
-1674 0 -68 -93 -180 -183 -221 -103 -48 -231 -42 -319 14 -62 39 -110 117
-199 321 -42 96 -113 243 -159 325 -45 83 -91 169 -101 192 -10 23 -27 46 -38
52 -13 8 -302 11 -928 11 -777 0 -912 -2 -929 -14 -12 -8 -29 -37 -39 -63 -34
-91 -372 -768 -399 -800 -39 -47 -104 -68 -206 -68 -73 1 -93 5 -140 28 -69
35 -135 98 -165 158 -25 48 -25 56 2 144 29 94 1334 3400 1375 3484 78 158
147 232 273 292 105 50 280 58 410 18z"/>
<path d="M2496 3858 c-21 -18 -93 -209 -351 -930 -179 -499 -325 -916 -325
-927 0 -11 11 -33 24 -48 l24 -28 664 -3 c364 -1 673 0 686 3 35 9 62 42 62
75 0 25 -618 1740 -660 1831 -23 50 -83 63 -124 27z m322 -1041 c144 -394 262
-719 262 -722 0 -3 -239 -5 -531 -5 -502 0 -531 1 -524 18 4 9 122 338 262
730 141 392 259 709 263 705 4 -4 125 -331 268 -726z"/>
</g>
</svg>
